<svg xmlns="http://www.w3.org/2000/svg" width="40" height="46" viewBox="0 0 40 46">
    <g>
        <path d="M18.6313 45.6595L1.46675 35.6131C1.05521 35.3713 0.713528 35.0243 0.475868 34.6067C0.238208 34.1891 0.112905 33.7155 0.112494 33.2334V13.1487C0.1115 12.6652 0.236136 12.19 0.473866 11.7709C0.711596 11.3517 1.05404 11.0034 1.46675 10.7609L18.6313 0.722622C19.0442 0.480976 19.5127 0.35376 19.9895 0.35376C20.4664 0.35376 20.9348 0.480976 21.3478 0.722622L38.5043 10.7691C38.917 11.0115 39.2595 11.3598 39.4972 11.779C39.7349 12.1981 39.8596 12.6733 39.8586 13.1568V33.2334C39.8596 33.7169 39.7349 34.1921 39.4972 34.6113C39.2595 35.0304 38.917 35.3787 38.5043 35.6212L21.3478 45.6595C20.9348 45.9011 20.4664 46.0284 19.9895 46.0284C19.5127 46.0284 19.0442 45.9011 18.6313 45.6595V45.6595Z" fill="#292929"/>
        <path d="M32.6285 32.98C32.4186 32.1592 31.6088 31.6729 30.799 31.8857C30.769 31.8857 27.7998 32.676 24.7107 33.4055C21.1716 34.1959 20.2119 34.2871 18.0825 34.439H18.0225C17.2427 34.4998 14.5434 34.5302 12.8039 34.1655C11.9641 33.9831 11.0944 33.8311 10.4045 33.7399C10.4345 33.0712 10.4345 32.2504 10.4345 31.5209C10.4345 31.2169 10.4045 30.913 10.4045 30.6394C10.3446 29.5755 10.3146 28.6636 10.4645 27.0221C10.6445 25.0159 11.1243 23.0097 11.5142 21.3986C11.8442 20.0004 12.0841 18.9669 12.0841 18.2373C12.0841 17.751 11.9341 17.1734 11.6342 16.2311C11.4243 15.5016 11.1543 14.6201 11.0944 13.9817C11.0344 13.2826 11.2143 13.1002 11.4843 12.9786C12.384 12.4619 14.7234 11.7627 16.043 11.8843C16.4629 11.9147 16.7628 12.1275 16.8528 12.2187C17.1527 12.5835 17.6326 13.3434 17.3627 14.6505C17.3327 14.8633 17.0927 15.2888 16.9428 15.4712C16.5529 15.9272 15.6231 16.5351 15.1133 16.8087C14.6334 17.0822 14.3335 17.599 14.3335 18.1461C14.3335 18.1461 14.3935 21.6722 14.4235 24.1952C14.4534 26.5054 14.0036 29.1195 14.0036 29.1499C13.8836 29.7579 14.1835 30.3962 14.6934 30.7002C15.2332 31.0346 15.8931 31.0042 16.3729 30.609C16.3729 30.609 17.3327 29.8795 18.4724 29.5755C19.822 29.2107 20.3619 28.8156 21.0517 28.1468C21.3216 27.9036 21.6515 27.5997 22.1614 27.2349C23.1211 26.5662 24.1408 26.171 25.0406 26.1102C26.0903 26.0494 27.0201 26.323 27.7399 26.9309C28.2497 27.3565 28.8496 27.7517 29.7493 27.9036C30.6491 28.0556 31.3689 27.8428 31.4888 27.8125C32.2686 27.5693 32.7185 26.7182 32.4786 25.8974C32.2386 25.1071 31.3989 24.6511 30.5891 24.8943C30.5891 24.8943 30.4091 24.9247 30.2292 24.8943C30.0192 24.8639 29.8693 24.7727 29.5994 24.56C28.3097 23.4961 26.6601 22.9793 24.8606 23.0705C23.0011 23.1617 21.4116 24.0128 20.4218 24.7423C19.762 25.1983 19.3421 25.5935 19.0122 25.867C18.5323 26.2926 18.4124 26.4142 17.6626 26.627C17.5126 26.6574 17.3927 26.7182 17.2427 26.7486C17.3027 25.9278 17.3627 25.0159 17.3327 24.1344C17.3027 22.4018 17.2727 20.1828 17.2727 18.9669C17.8425 18.6021 18.5923 18.055 19.1022 17.4774C19.6121 16.8999 20.0619 15.9879 20.2119 15.2584C20.6018 13.3738 20.1819 11.5196 19.0422 10.1821C18.3824 9.42216 17.3327 8.9054 16.223 8.81421C14.1235 8.63183 11.2443 9.57414 9.95466 10.3037C8.54505 11.1244 7.85523 12.5227 8.06518 14.2857C8.15515 15.1976 8.45507 16.2007 8.725 17.0822C8.84496 17.4774 8.99492 18.055 9.02492 18.2373C9.02492 18.6325 8.75499 19.666 8.54505 20.6691C8.15515 22.3714 7.64529 24.4688 7.43535 26.6878C7.25539 28.542 7.31538 29.6667 7.34537 30.7306C7.34537 31.0042 7.37536 31.2777 7.37536 31.5817C7.40535 32.9496 7.28539 34.9254 7.28539 34.9254C7.2254 35.7157 7.82524 36.4149 8.60503 36.5364C8.63502 36.5364 10.4645 36.7796 12.1141 37.114C13.4937 37.418 15.2632 37.4788 16.6129 37.4788C17.2727 37.4788 17.8125 37.4484 18.1724 37.4484H18.2324C20.3619 37.2964 21.5315 37.2052 25.2805 36.3541C28.4297 35.6245 31.4589 34.8342 31.4888 34.8342C32.3586 34.6214 32.8385 33.8007 32.6285 32.98Z" fill="#FEA1D9"/>
        <path d="M23.0911 19.8788L23.361 20.0004L23.2411 20.274C22.9112 21.0339 23.2411 21.9458 23.9909 22.2802C24.2008 22.3714 24.3808 22.4018 24.5907 22.4018C25.1606 22.4018 25.7004 22.0674 25.9703 21.4898L26.6901 19.818C26.8401 19.4532 26.8701 19.0277 26.7201 18.6629C26.5702 18.2981 26.3002 17.9942 25.9403 17.8118L25.6704 17.6902L26.5102 15.7448C26.8401 14.9848 26.5102 14.0729 25.7604 13.7386C25.0106 13.4042 24.1108 13.7386 23.7809 14.4985L22.3113 17.8422C22.1614 18.2069 22.1314 18.6325 22.2813 18.9973C22.4313 19.4228 22.7312 19.7268 23.0911 19.8788Z" fill="#FEA1D9"/>
    </g>
</svg>
