<svg width="65" height="59" viewBox="0 0 65 59" fill="none" xmlns="http://www.w3.org/2000/svg">
    <path d="M8.0118 58.0292H56.0118C57.4179 58.0331 58.8003 57.6662 60.0194 56.9656C61.2386 56.265 62.2516 55.2555 62.9564 54.0387C63.6611 52.8219 64.0327 51.4408 64.0336 50.0347C64.0346 48.6285 63.6649 47.247 62.9618 46.0292L38.9618 4.02924C38.262 2.80517 37.251 1.78782 36.0314 1.08024C34.8118 0.372665 33.4268 0 32.0168 0C30.6068 0 29.2218 0.372665 28.0022 1.08024C26.7826 1.78782 25.7717 2.80517 25.0718 4.02924L1.0718 46.0292C0.369152 47.2463 -0.000516416 48.6269 5.41454e-07 50.0322C0.000517499 51.4375 0.371202 52.8178 1.07475 54.0343C1.77829 55.2509 2.78987 56.2606 4.00767 56.9619C5.22546 57.6632 6.60651 58.0313 8.0118 58.0292V58.0292ZM25.1518 50.0292L32.0118 38.0292L38.8718 50.0292H25.1518ZM32.0118 8.02924L56.0118 50.0292H48.0818L45.8118 46.0292L38.9618 34.0292L36.4018 29.5392C35.9702 28.7553 35.3361 28.1016 34.5656 27.6463C33.7952 27.191 32.9167 26.9508 32.0218 26.9508C31.1269 26.9508 30.2484 27.191 29.478 27.6463C28.7075 28.1016 28.0734 28.7553 27.6418 29.5392L25.0618 34.0292L18.2118 46.0292L15.9418 50.0292H8.0118L32.0118 8.02924Z" fill="url(#paint0_linear_0_1)"/>
    <path d="M30.2887 37.8294C31.0668 36.5428 32.9332 36.5428 33.7113 37.8294L39.6905 47.7149C40.4967 49.0478 39.537 50.75 37.9792 50.75H26.0208C24.463 50.75 23.5033 49.0478 24.3095 47.7149L30.2887 37.8294Z" fill="url(#paint1_linear_0_1)"/>
    <defs>
        <linearGradient id="paint0_linear_0_1" x1="32.0168" y1="0" x2="32.0168" y2="58.0293" gradientUnits="userSpaceOnUse">
            <stop stop-color="#44C2FF"/>
            <stop offset="1" stop-color="#1772FF"/>
        </linearGradient>
        <linearGradient id="paint1_linear_0_1" x1="32" y1="35" x2="32" y2="56" gradientUnits="userSpaceOnUse">
            <stop stop-color="#F0625E"/>
            <stop offset="1" stop-color="#EC2E2A"/>
        </linearGradient>
    </defs>
</svg>
