<svg xmlns="http://www.w3.org/2000/svg" width="34" height="38" viewBox="0 0 34 38" fill="none">
    <path d="M33.8029 31.8278C33.5229 30.7479 32.443 30.1079 31.3631 30.3879C31.3231 30.3879 27.3634 31.4278 23.2437 32.3877C18.5241 33.4277 17.2442 33.5476 14.4044 33.7476H14.3244C13.2845 33.8276 9.68477 33.8676 7.36495 33.3877C6.24504 33.1477 5.08513 32.9477 4.1652 32.8277C4.20519 31.9478 4.20519 30.8678 4.20519 29.9079C4.20519 29.508 4.1652 29.108 4.1652 28.748C4.0852 27.3481 4.04521 26.1482 4.24519 23.9884C4.48517 21.3486 5.12512 18.7088 5.64508 16.5889C6.08505 14.7491 6.40502 13.3892 6.40502 12.4293C6.40502 11.7893 6.20504 11.0294 5.80507 9.78947C5.52509 8.82954 5.16512 7.66963 5.08513 6.82969C5.00513 5.90976 5.24511 5.66978 5.60509 5.50979C6.80499 4.82985 9.92475 3.90992 11.6846 4.06991C12.2446 4.1099 12.6445 4.38988 12.7645 4.50987C13.1645 4.98983 13.8045 5.98976 13.4445 7.70963C13.4045 7.9896 13.0845 8.54956 12.8845 8.78954C12.3646 9.3895 11.1247 10.1894 10.4447 10.5494C9.80476 10.9094 9.40479 11.5893 9.40479 12.3093C9.40479 12.3093 9.48479 16.9489 9.52478 20.2687C9.56478 23.3084 8.96483 26.7482 8.96483 26.7882C8.80484 27.5881 9.20481 28.428 9.88476 28.828C10.6047 29.268 11.4846 29.228 12.1246 28.708C12.1246 28.708 13.4045 27.7481 14.9244 27.3481C16.7242 26.8682 17.4442 26.3482 18.3641 25.4683C18.7241 25.1483 19.164 24.7483 19.844 24.2684C21.1239 23.3884 22.4838 22.8685 23.6837 22.7885C25.0836 22.7085 26.3235 23.0684 27.2834 23.8684C27.9634 24.4283 28.7633 24.9483 29.9632 25.1483C31.1631 25.3483 32.1231 25.0683 32.283 25.0283C33.323 24.7083 33.9229 23.5884 33.6029 22.5085C33.283 21.4686 32.163 20.8686 31.0831 21.1886C31.0831 21.1886 30.8431 21.2286 30.6032 21.1886C30.3232 21.1486 30.1232 21.0286 29.7632 20.7486C28.0434 19.3487 25.8435 18.6688 23.4437 18.7888C20.9639 18.9088 18.8441 20.0287 17.5242 20.9886C16.6442 21.5886 16.0843 22.1085 15.6443 22.4685C15.0044 23.0285 14.8444 23.1884 13.8445 23.4684C13.6445 23.5084 13.4845 23.5884 13.2845 23.6284C13.3645 22.5485 13.4445 21.3486 13.4045 20.1887C13.3645 17.9088 13.3245 14.9891 13.3245 13.3892C14.0844 12.9092 15.0844 12.1893 15.7643 11.4293C16.4443 10.6694 17.0442 9.46949 17.2442 8.50956C17.7642 6.02975 17.2042 3.58994 15.6843 1.83008C14.8044 0.830154 13.4045 0.150206 11.9246 0.0302155C9.12481 -0.209766 5.28511 1.03014 3.56524 1.99006C1.68539 3.06998 0.765457 4.90984 1.04544 7.22966C1.16543 8.42957 1.5654 9.74947 1.92537 10.9094C2.08536 11.4293 2.28534 12.1893 2.32534 12.4293C2.32534 12.9492 1.96537 14.3091 1.68539 15.629C1.16543 17.8688 0.485479 20.6286 0.2055 23.5484C-0.0344812 25.9882 0.0455126 27.4681 0.0855096 28.868C0.0855096 29.228 0.125507 29.5879 0.125507 29.9879C0.165504 31.7878 0.00551577 34.3876 0.00551577 34.3876C-0.0744781 35.4275 0.72546 36.3474 1.76538 36.5074C1.80538 36.5074 4.24519 36.8274 6.44502 37.2674C8.28488 37.6673 10.6447 37.7473 12.4446 37.7473C13.3245 37.7473 14.0444 37.7073 14.5244 37.7073H14.6044C17.4442 37.5073 19.0041 37.3873 24.0037 36.2674C28.2034 35.3075 32.243 34.2676 32.283 34.2676C33.4429 33.9876 34.0829 32.9077 33.8029 31.8278Z" fill="url(#paint0_linear_12_3)"/>
    <path d="M21.0839 14.5891L21.4439 14.7491L21.2839 15.1091C20.8439 16.109 21.2839 17.3089 22.2838 17.7489C22.5638 17.8688 22.8038 17.9088 23.0837 17.9088C23.8437 17.9088 24.5636 17.4689 24.9236 16.7089L25.8835 14.5091C26.0835 14.0291 26.1235 13.4692 25.9235 12.9892C25.7235 12.5093 25.3636 12.1093 24.8836 11.8693L24.5236 11.7093L25.6435 9.14952C26.0835 8.14959 25.6435 6.94968 24.6436 6.50972C23.6437 6.06975 22.4438 6.50972 22.0038 7.50964L20.044 11.9093C19.844 12.3893 19.804 12.9492 20.004 13.4292C20.204 13.9891 20.6039 14.3891 21.0839 14.5891Z" fill="#EB3349"/>
    <defs>
        <linearGradient id="paint0_linear_12_3" x1="16.9342" y1="1.52588e-05" x2="16.9342" y2="37.7473" gradientUnits="userSpaceOnUse">
            <stop stop-color="#EB3349"/>
            <stop offset="1" stop-color="#F45C43"/>
        </linearGradient>
    </defs>
</svg>
